<svg xmlns="http://www.w3.org/2000/svg" viewBox="0 0 512 512">
  <defs>
    <linearGradient id="bg" x1="0%" y1="0%" x2="100%" y2="100%">
      <stop offset="0%" style="stop-color:#667eea"/>
      <stop offset="100%" style="stop-color:#764ba2"/>
    </linearGradient>
    <linearGradient id="shine" x1="0%" y1="0%" x2="0%" y2="100%">
      <stop offset="0%" style="stop-color:#ffffff;stop-opacity:0.3"/>
      <stop offset="100%" style="stop-color:#ffffff;stop-opacity:0"/>
    </linearGradient>
  </defs>

  <!-- Background circle -->
  <circle cx="256" cy="256" r="240" fill="url(#bg)"/>

  <!-- Lock shackle (perfectly centered) -->
  <path d="M 176 256 
           C 176 176, 176 130, 256 130
           C 336 130, 336 176, 336 256
           L 336 286
           L 304 286
           L 304 256
           C 304 196, 304 165, 256 165
           C 208 165, 208 196, 208 256
           L 208 286
           L 176 286 Z" 
        fill="#ffffff" stroke="#e0e0e0" stroke-width="2"/>

  <!-- Lock body main (centered) -->
  <rect x="146" y="266" width="220" height="170" rx="22" ry="22" 
        fill="#ffffff" stroke="#e0e0e0" stroke-width="2"/>
  
  <!-- Lock body shadow/depth -->
  <rect x="146" y="266" width="220" height="22" rx="22" ry="22" 
        fill="url(#shine)" opacity="0.5"/>

  <!-- Lock face plate -->
  <rect x="176" y="306" width="160" height="110" rx="12" ry="12" 
        fill="#f5f5f5" stroke="#d0d0d0" stroke-width="1"/>

  <!-- Keyhole shaped as download arrow (genius idea!) -->
  <g>
    <!-- Arrow shaft (rectangular part going down) -->
    <rect x="244" y="335" width="24" height="45" rx="3" fill="#667eea"/>
    
    <!-- Arrow head (triangle pointing down) -->
    <path d="M 230 375 L 256 400 L 282 375 Z" fill="#667eea"/>
    
    <!-- Top circle of keyhole -->
    <circle cx="256" cy="337" r="16" fill="#667eea"/>
  </g>

  <!-- Lock shine effect -->
  <ellipse cx="200" cy="315" rx="35" ry="18" fill="#ffffff" opacity="0.3"/>

  <!-- Screws for detail (perfectly placed) -->
  <circle cx="186" cy="316" r="4" fill="#b0b0b0"/>
  <circle cx="326" cy="316" r="4" fill="#b0b0b0"/>
  <circle cx="186" cy="406" r="4" fill="#b0b0b0"/>
  <circle cx="326" cy="406" r="4" fill="#b0b0b0"/>
</svg>
