<svg xmlns="http://www.w3.org/2000/svg" viewBox="0 0 512 512">
  <defs>
    <linearGradient id="bg" x1="0%" y1="0%" x2="100%" y2="100%">
      <stop offset="0%" style="stop-color:#667eea"/>
      <stop offset="100%" style="stop-color:#764ba2"/>
    </linearGradient>
    <linearGradient id="shine" x1="0%" y1="0%" x2="0%" y2="100%">
      <stop offset="0%" style="stop-color:#ffffff;stop-opacity:0.3"/>
      <stop offset="100%" style="stop-color:#ffffff;stop-opacity:0"/>
    </linearGradient>
  </defs>

  <!-- Background circle -->
  <circle cx="256" cy="256" r="240" fill="url(#bg)"/>

  <!-- Lock shackle (moved up for better centering) -->
  <path d="M 176 236 
           C 176 156, 176 110, 256 110
           C 336 110, 336 156, 336 236
           L 336 266
           L 304 266
           L 304 236
           C 304 176, 304 145, 256 145
           C 208 145, 208 176, 208 236
           L 208 266
           L 176 266 Z" 
        fill="#ffffff" stroke="#e0e0e0" stroke-width="2"/>

  <!-- Lock body main (moved up) -->
  <rect x="146" y="246" width="220" height="170" rx="22" ry="22" 
        fill="#ffffff" stroke="#e0e0e0" stroke-width="2"/>
  
  <!-- Lock body shadow/depth -->
  <rect x="146" y="246" width="220" height="22" rx="22" ry="22" 
        fill="url(#shine)" opacity="0.5"/>

  <!-- Lock face plate -->
  <rect x="176" y="286" width="160" height="110" rx="12" ry="12" 
        fill="#f5f5f5" stroke="#d0d0d0" stroke-width="1"/>

  <!-- Keyhole shaped as download arrow (softer, rounded) -->
  <g>
    <!-- Arrow shaft (rounded rectangular part going down) -->
    <rect x="244" y="315" width="24" height="45" rx="8" fill="#667eea"/>
    
    <!-- Arrow head (softer triangle pointing down with rounded edges) -->
    <path d="M 232 355 Q 230 357, 232 359 L 254 378 Q 256 380, 258 378 L 280 359 Q 282 357, 280 355 Z" fill="#667eea"/>
    
    <!-- Top circle of keyhole -->
    <circle cx="256" cy="317" r="16" fill="#667eea"/>
  </g>

  <!-- Lock shine effect (adjusted for new position) -->
  <ellipse cx="200" cy="295" rx="35" ry="18" fill="#ffffff" opacity="0.3"/>

  <!-- Screws for detail (adjusted for new position) -->
  <circle cx="186" cy="296" r="4" fill="#b0b0b0"/>
  <circle cx="326" cy="296" r="4" fill="#b0b0b0"/>
  <circle cx="186" cy="386" r="4" fill="#b0b0b0"/>
  <circle cx="326" cy="386" r="4" fill="#b0b0b0"/>
</svg>
